<svg xmlns="http://www.w3.org/2000/svg" viewBox="0 0 1800.00 1800.00" data-guides="{&quot;vertical&quot;:[],&quot;horizontal&quot;:[]}"><defs/><path fill="rgb(19,82,66)" stroke="none" fill-opacity="1" stroke-width="1" stroke-opacity="1" display="block" id="tSvg1787deb675d" title="Path 1" d="M0 62C682.6667 62 1365.3333 62 2048 62C2048 195.2018 2048 328.4035 2048 461.6053C2048 644.323 2048 827.0408 2048 1009.7585C2048 1160.7128 2048 1311.6671 2048 1462.6214C2048 1468.35 2048 1474.0785 2048 1479.8071C2048 1601.5381 2048 1723.269 2048 1845C1365.3333 1845 682.6667 1845 0 1845C0 1700.1196 0 1555.2393 0 1410.3589C0 1403.0894 0 1395.8198 0 1388.5503C0 1355.8532 0 1323.1562 0 1290.4591C0 1284.5071 0 1278.5551 0 1272.603C0 1237.654 0 1202.705 0 1167.756C0 994.8805 0 822.0049 0 649.1294C0 453.4196 0 257.7098 0 62Z"/><path fill="rgb(74,138,104)" stroke="none" fill-opacity="1" stroke-width="1" stroke-opacity="1" display="block" id="tSvgb5697f946d" title="Path 2" d="M0 0C682.6667 0 1365.3333 0 2048 0C2048 152.9075 2048 305.8149 2048 458.7224C1908.1 365.1184 1749.74 307.364 1580.4 300.1863C1553.06 299.028 1522.76 300.4101 1495.46 302.5389C1478.92 303.8281 1458 304.055 1442.02 306.2337C1441.87 305.8849 1441.73 305.5361 1441.59 305.1873C1437.65 295.1113 1437.77 283.903 1441.93 273.915C1447.74 259.7735 1461.54 268.95 1470.9 273.5023C1478.49 277.1871 1495.6 293.892 1502.59 281.0327C1505.18 275.548 1500.94 264.2328 1497.96 259.6845C1474.43 219.1968 1427.73 217.2879 1408.66 173.5531C1400.19 155.364 1396.8 135.5568 1394.02 115.9046C1392.97 108.495 1392.24 93.0156 1389.21 86.8454C1377.66 63.3386 1363.05 78.3239 1360.56 96.8333C1355.23 136.4213 1349.42 181.6283 1314.54 206.8052C1290.55 223.3473 1254.55 242.116 1246.45 275.1193C1245.62 278.5223 1246.45 280.4481 1248.2 283.0695C1267.24 292.285 1310.54 238.4233 1308.46 289.4427C1307.23 319.6206 1284.22 330.8869 1260.9 343.1935C1259.83 340.3612 1260.75 341.4176 1257.98 339.9914C1247.02 340.2813 1236.58 345.9099 1226.18 349.2379C1199.87 357.6669 1173.21 366.0948 1147.46 376.1668C1109.67 390.9519 1070.1 405.5232 1033.15 422.2322C986.697 443.2356 940.887 467.2593 895.305 490.0966C844.856 514.7538 794.266 539.1242 743.54 563.2088C598.248 630.8513 409.081 703.4818 247.73 711.1342C183.235 714.5722 118.603 707.7563 56.2457 690.9433C40.3793 686.7229 15.3244 679.9919 0 673.9885C0 449.3257 0 224.6628 0 0Z"/><path fill="rgb(36,122,88)" stroke="none" fill-opacity="1" stroke-width="1" stroke-opacity="1" display="block" id="tSvg5494fb0efb" title="Path 3" d="M1260.9 343.399C1284.22 331.085 1307.23 319.812 1308.46 289.616C1310.54 238.566 1267.24 292.46 1248.2 283.239C1246.45 280.616 1245.62 278.689 1246.45 275.284C1254.55 242.261 1290.55 223.481 1314.54 206.929C1349.42 181.737 1355.23 136.503 1360.56 96.8913C1363.05 78.3708 1377.66 63.3765 1389.21 86.8974C1392.24 93.0713 1392.97 108.56 1394.02 115.974C1396.8 135.638 1400.19 155.457 1408.66 173.657C1427.73 217.418 1474.43 219.328 1497.96 259.84C1500.94 264.391 1505.18 275.713 1502.59 281.201C1495.6 294.068 1478.49 277.353 1470.9 273.666C1461.54 269.111 1447.74 259.929 1441.93 274.079C1437.77 284.073 1437.65 295.288 1441.59 305.37C1441.73 305.719 1441.87 306.068 1442.02 306.417C1458 304.237 1478.92 304.01 1495.46 302.72C1522.76 300.59 1553.06 299.207 1580.4 300.366C1749.74 307.548 1908.1 365.337 2048 458.997C2048 668.8713 2048 878.7457 2048 1088.62C2040.69 1083.6 2020.62 1074.03 2011.83 1069.67C1985.22 1056.28 1958.27 1043.55 1931.02 1031.51C1858.55 999.433 1783.68 973.074 1707.09 952.68C1700.07 950.75 1676.74 943.004 1670.86 945.279C1680.94 958.773 1715.87 1013.83 1696.94 1027.92C1693.27 1029.06 1685.68 1027.55 1683.73 1024.82C1659.84 991.515 1635.76 970.766 1594.45 959.191C1597.18 981.517 1608.08 1010.54 1605.61 1032.9C1605.03 1038.22 1592.86 1040.61 1588.23 1036.66C1560.39 1012.93 1534.78 961.265 1503.32 942.515C1501.95 958.336 1501.31 968.29 1503.16 984.487C1505.15 1003.26 1510.52 1021.51 1518.99 1038.38C1546.19 1092.65 1594.45 1101.26 1639.08 1137.57C1663.37 1156.72 1682.11 1181.82 1693.16 1210.81C1696.5 1219.58 1706.05 1241.16 1696.43 1249.24C1692.39 1252.63 1686.69 1252.54 1683.01 1248.22C1653.72 1213.86 1602.88 1181.03 1557.11 1178.69C1558.26 1186.58 1560.67 1191.48 1562.54 1198.15C1564.12 1203.8 1589.04 1247.11 1574.68 1246.14C1544.01 1244.07 1500.56 1221.56 1473.73 1207.86C1469.57 1196.56 1466.36 1182.98 1462.17 1170.95C1452.4 1143.39 1440.17 1116.76 1425.62 1091.38C1366.73 987.986 1268.92 905.332 1153.43 873.585C1182.78 863.128 1209.67 853.956 1236.33 837.524C1260.32 825.85 1287.46 787.304 1289.81 760.61C1290.24 755.756 1292.01 746.509 1288.98 742.549C1288.34 742.545 1287.7 742.541 1287.06 742.537C1279.75 747.959 1272.62 761.51 1266.37 768.994C1256.2 781.177 1213.4 827.077 1199.17 827.053C1196.72 827.049 1194.56 826.488 1193 824.467C1183.89 812.683 1192.17 768.568 1194.46 753.408C1167.9 767.177 1146.54 799.255 1128.59 822.476C1121.6 831.517 1109.43 825.687 1108.78 815.708C1107.93 802.757 1116.19 788.424 1119.87 776.561C1150.08 679.157 1257.79 689.919 1310.07 614.236C1323.83 595.07 1338.67 566.159 1337.27 540.767C1337.13 538.351 1336.78 538.52 1335.47 537.564C1332.25 539.372 1316.71 562.614 1312.22 567.302C1273.64 607.543 1206.09 668.434 1245.16 563.004C1200.78 573.543 1180.5 619.381 1166.23 622.722C1164.36 623.161 1161.87 622.034 1160.38 620.844C1157.63 618.648 1156.44 615.36 1156.14 611.941C1155.15 600.384 1161.58 584.905 1166.54 574.628C1205.9 493.132 1280.28 511.376 1325.53 456.284C1339.84 438.856 1346.05 413.152 1343.2 390.895C1342.76 387.466 1342.18 384.666 1339.37 382.432C1324.5 381.832 1300.51 437.145 1282.53 434.516C1271.04 428.337 1280.78 397.853 1276.67 387.763C1275.8367 387.4607 1275.0033 387.1583 1274.17 386.856C1253.57 389.72 1239.28 415.157 1226.99 430.197C1215.75 443.941 1202.94 435.052 1205.74 421.507C1212.74 387.507 1233.51 363.362 1260.9 343.399Z"/><path fill="rgb(254,254,254)" stroke="none" fill-opacity="1" stroke-width="1" stroke-opacity="1" display="block" id="tSvg10f0392de2" title="Path 4" d="M1187.3512 326.3516C1210.6712 314.0376 1233.6812 302.7646 1234.9112 272.5686C1236.9912 221.5186 1193.6912 275.4126 1174.6512 266.1916C1172.9012 263.5686 1172.0712 261.6416 1172.9012 258.2366C1181.0012 225.2136 1217.0012 206.4336 1240.9912 189.8816C1275.8712 164.6896 1281.6812 119.4556 1287.0112 79.8439C1289.5012 61.3234 1304.1112 46.3291 1315.6612 69.85C1318.6912 76.0239 1319.4212 91.5126 1320.4712 98.9266C1323.2512 118.5906 1326.6412 138.4096 1335.1112 156.6096C1354.1812 200.3706 1400.8812 202.2806 1424.4112 242.7926C1427.3912 247.3436 1431.6312 258.6656 1429.0412 264.1536C1422.0512 277.0206 1404.9412 260.3056 1397.3512 256.6186C1387.9912 252.0636 1374.1912 242.8816 1368.3812 257.0316C1364.2212 267.0256 1364.1012 278.2406 1368.0412 288.3226C1368.1812 288.6716 1368.3212 289.0206 1368.4712 289.3696C1375.6912 301.3416 1388.9412 310.3706 1400.9112 317.1566C1428.1412 332.6026 1450.3912 353.2286 1462.8112 382.3596C1466.1412 391.4936 1473.6412 410.8666 1462.3912 417.3696C1455.3312 421.4536 1449.4912 413.1906 1444.6512 407.3896C1437.9412 399.3616 1413.0512 360.2296 1399.5512 371.7696C1395.5312 375.2046 1407.1012 413.1016 1394.2212 416.6526C1376.0112 420.2746 1352.7612 367.4696 1339.2612 363.9986C1336.9012 364.9436 1335.9812 365.7206 1334.9112 368.1086C1328.9912 381.3276 1336.0012 411.5946 1342.0412 424.6346C1372.6812 490.8496 1473.6612 469.1336 1513.4812 563.1336C1517.5312 572.6776 1523.7812 585.1346 1520.0012 595.5406C1519.0412 598.1976 1517.6112 600.0946 1514.8612 601.1346C1511.7712 602.3066 1508.6712 602.2426 1505.7812 600.5806C1498.2712 596.2636 1491.1312 583.8686 1485.2212 577.1516C1472.1712 562.3056 1453.0312 553.0346 1435.0412 545.7656C1439.5612 558.3366 1457.1012 597.9996 1442.3512 608.0136C1425.6212 611.9226 1367.9212 557.3196 1359.7812 543.3956C1357.8612 540.1106 1343.5112 520.7246 1342.0312 520.0336C1340.6512 520.9716 1340.1112 521.0736 1339.9012 523.6316C1338.1212 545.3216 1354.0812 577.5266 1365.7112 594.0886C1381.8412 617.1046 1402.9812 636.1626 1427.5412 649.8316C1443.6412 658.7476 1463.8912 665.9766 1481.0512 673.5986C1517.7412 689.9026 1546.7312 716.8786 1560.7012 755.2916C1563.5012 762.9656 1578.4312 807.3686 1555.6612 806.1796C1547.0212 805.7286 1541.4012 788.5896 1537.5812 782.8916C1523.2012 761.5586 1502.2512 747.7916 1478.6812 738.6206C1480.9612 748.9066 1490.9512 788.3966 1488.6812 795.9366C1480.1012 824.4876 1443.5312 782.0096 1438.5112 776.7886C1428.2012 766.0586 1418.5112 754.7456 1409.5012 742.9046C1405.6112 737.8316 1395.2012 721.9836 1389.9712 720.1176C1387.7412 721.9366 1387.6412 722.8876 1387.4612 725.9546C1385.8512 753.5786 1400.5012 781.0466 1418.9712 800.6796C1466.3812 851.0866 1542.6912 862.5596 1587.6412 916.5206C1589.9012 919.2256 1595.0912 926.1356 1597.3112 928.2316C1607.3912 941.7256 1642.3212 996.7826 1623.3912 1010.8726C1619.7212 1012.0126 1612.1312 1010.5026 1610.1812 1007.7726C1586.2912 974.4676 1562.2112 953.7186 1520.9012 942.1436C1523.6312 964.4696 1534.5312 993.4926 1532.0612 1015.8526C1531.4812 1021.1726 1519.3112 1023.5626 1514.6812 1019.6126C1486.8412 995.8826 1461.2312 944.2176 1429.7712 925.4676C1428.4012 941.2886 1427.7612 951.2426 1429.6112 967.4396C1431.6012 986.2126 1436.9712 1004.4626 1445.4412 1021.3326C1472.6412 1075.6026 1520.9012 1084.2126 1565.5312 1120.5226C1589.8212 1139.6726 1608.5612 1164.7726 1619.6112 1193.7626C1622.9512 1202.5326 1632.5012 1224.1126 1622.8812 1232.1926C1618.8412 1235.5826 1613.1412 1235.4926 1609.4612 1231.1726C1580.1712 1196.8126 1529.3312 1163.9826 1483.5612 1161.6426C1484.7112 1169.5326 1487.1212 1174.4326 1488.9912 1181.1026C1490.5712 1186.7526 1515.4912 1230.0626 1501.1312 1229.0926C1470.4612 1227.0226 1427.0112 1204.5126 1400.1812 1190.8126C1396.0212 1179.5126 1392.8112 1165.9326 1388.6212 1153.9026C1378.8512 1126.3426 1366.6212 1099.7126 1352.0712 1074.3326C1293.1812 970.9386 1195.3712 888.2846 1079.8812 856.5376C1109.2312 846.0806 1136.1212 836.9086 1162.7812 820.4766C1186.7712 808.8026 1213.9112 770.2566 1216.2612 743.5626C1216.6912 738.7086 1218.4612 729.4616 1215.4312 725.5016C1214.7912 725.4976 1214.1512 725.4936 1213.5112 725.4896C1206.2012 730.9116 1199.0712 744.4626 1192.8212 751.9466C1182.6512 764.1296 1139.8512 810.0296 1125.6212 810.0056C1123.1712 810.0016 1121.0112 809.4406 1119.4512 807.4196C1110.3412 795.6356 1118.6212 751.5206 1120.9112 736.3606C1094.3512 750.1296 1072.9912 782.2076 1055.0412 805.4286C1048.0512 814.4696 1035.8812 808.6396 1035.2312 798.6606C1034.3812 785.7096 1042.6412 771.3766 1046.3212 759.5136C1076.5312 662.1096 1184.2412 672.8716 1236.5212 597.1886C1250.2812 578.0226 1265.1212 549.1116 1263.7212 523.7196C1263.5812 521.3036 1263.2312 521.4726 1261.9212 520.5166C1258.7012 522.3246 1243.1612 545.5666 1238.6712 550.2546C1200.0912 590.4956 1132.5412 651.3866 1171.6112 545.9566C1127.2312 556.4956 1106.9512 602.3336 1092.6812 605.6746C1090.8112 606.1136 1088.3212 604.9866 1086.8312 603.7966C1084.0812 601.6006 1082.8912 598.3126 1082.5912 594.8936C1081.6012 583.3366 1088.0312 567.8576 1092.9912 557.5806C1132.3512 476.0846 1206.7312 494.3286 1251.9812 439.2366C1266.2912 421.8086 1272.5012 396.1046 1269.6512 373.8476C1269.2112 370.4186 1268.6312 367.6186 1265.8212 365.3846C1250.9512 364.7846 1226.9612 420.0976 1208.9812 417.4686C1197.4912 411.2896 1207.2312 380.8056 1203.1212 370.7156C1202.2878 370.4133 1201.4545 370.111 1200.6212 369.8086C1180.0212 372.6726 1165.7312 398.1096 1153.4412 413.1496C1142.2012 426.8936 1129.3912 418.0046 1132.1912 404.4596C1139.1912 370.4596 1159.9612 346.3146 1187.3512 326.3516Z"/><path fill="rgb(36,122,88)" stroke="none" fill-opacity="1" stroke-width="1" stroke-opacity="1" display="block" id="tSvg13dfac73a72" title="Path 5" d="M4.876 639.1839C19.4378 645.1915 43.2459 651.9272 58.3227 656.1506C117.5769 672.9753 178.9926 679.796 240.2781 676.3556C393.5997 668.6979 573.3531 596.0165 711.4148 528.3266C759.6165 504.2251 807.689 479.8376 855.6275 455.1631C898.9411 432.3098 942.4715 408.2693 986.6128 387.2512C1021.7241 370.5305 1059.3249 355.949 1095.2343 341.1535C1119.7029 331.0745 1145.0362 322.6406 1170.037 314.2058C1179.9194 310.8754 1189.8399 305.2428 1200.2545 304.9528C1202.8866 306.38 1202.0124 305.3229 1203.0292 308.1571C1177.0022 328.1222 1157.2658 352.2696 1150.6141 386.2731C1147.9535 399.8195 1160.126 408.7094 1170.8067 394.964C1182.4851 379.9224 1196.0639 354.4829 1215.6388 351.6186C1216.4307 351.9209 1217.2225 352.2233 1218.0144 352.5257C1221.9199 362.6167 1212.6646 393.1038 1223.5828 399.2834C1240.668 401.9127 1263.4642 346.5941 1277.5942 347.1941C1280.2644 349.4283 1280.8155 352.2286 1281.2336 355.658C1283.9418 377.9172 1278.0408 403.6239 1264.443 421.0536C1221.4448 476.1513 1150.7662 457.9054 1113.3649 539.4097C1108.6517 549.6877 1102.5417 565.1683 1103.4824 576.7265C1103.7675 580.1458 1104.8983 583.4342 1107.5114 585.6304C1108.9273 586.8205 1111.2933 587.9476 1113.0703 587.5086C1126.6302 584.1673 1145.901 538.3246 1188.0725 527.7845C1150.9467 633.2252 1215.1352 572.328 1251.7953 532.0829C1256.0619 527.3945 1270.8285 504.1501 1273.8883 502.3419C1275.1331 503.298 1275.4657 503.129 1275.5987 505.5452C1276.9291 530.9398 1262.8276 559.8538 1249.7523 579.0217C1200.0739 654.7124 1097.724 643.9493 1069.0173 741.3633C1065.5205 753.2275 1057.6715 767.5619 1058.4792 780.5143C1059.0969 790.4943 1070.6612 796.3249 1077.3034 787.2829C1094.3601 764.0596 1114.6572 731.9783 1139.8955 718.2079C1137.7194 733.3694 1129.8515 777.4889 1138.5081 789.2741C1139.9905 791.2953 1142.043 791.8564 1144.3711 791.8604C1157.8929 791.8844 1198.5631 745.9797 1208.227 733.7955C1214.1659 726.3107 1220.9411 712.7584 1227.8874 707.3358C1228.4955 707.3398 1229.1037 707.3438 1229.7118 707.3478C1232.591 711.3082 1230.9091 720.5561 1230.5005 725.4106C1228.2675 752.1074 1202.478 790.6573 1179.6819 802.3325C1173.2298 798.2081 1165.2953 798.6621 1157.8929 798.15C1062.0616 791.5314 967.19 807.799 874.3186 831.6885C850.7214 837.5441 827.6164 845.4109 805.2326 855.2119C784.9555 864.0158 765.814 876.048 745.7687 885.706C700.4263 907.5542 656.2745 932.5147 612.1132 956.8832C610.0075 958.0443 609.0572 959.3825 607.6823 961.3197C586.4169 937.6503 576.0346 938.6074 548.0673 930.7586C532.4872 926.3861 515 886.465 520.6815 870.0564C530.7264 862.0266 540.7523 896.5061 557.0404 894.0678C563.6901 888.6023 557.1591 879.2893 559.4967 872.3586C570.2914 867.7691 588.2946 902.9697 598.675 899.6374C600.698 896.5941 599.8799 891.8236 599.3202 888.2472C596.5303 870.5984 586.4179 856.0439 572.4399 846.2279C563.2074 839.7453 552.7044 835.7999 545.8086 826.2109C539.4163 817.323 533.9059 800.8643 539.5408 790.3623C550.1682 783.0035 562.603 805.0227 573.1915 803.4596C584.0204 793.9916 568.485 778.519 562.0538 771.7024C551.0301 760.0162 534.363 753.7185 526.6461 739.255C515.3905 721.0442 523.1312 683.3104 507.0665 677.0767C492.8443 678.9479 495.1743 719.088 489.0766 734.0905C479.2065 758.374 431.2585 774.9317 436.7908 802.4065C444.9989 812.3145 466.8924 780.1932 473.7151 791.1573C482.0714 804.5847 468.0241 829.7323 455.9656 835.8719C434.82 846.639 417.8668 861.9175 411.523 886.284C410.2459 891.2785 409.9361 895.2649 413.8103 899.3374C417.5152 899.6094 419.4404 898.6693 422.3082 895.795C434.3867 883.6898 435.3255 876.613 451.4985 870.1584C444.9381 925.647 475.9358 870.8405 486.1309 869.0743C488.1615 870.3564 490.1532 872.6766 490.253 875.3849C491.0084 895.844 472.9463 933.9259 451.3237 935.043C429.9814 936.1461 413.0282 947.0832 399.3077 964.139C390.8221 975.0761 381.4233 990.2576 381.2979 1005.2491C361.1843 1018.0104 326.6479 1034.2121 304.5815 1045.6333C264.9272 1066.0453 225.9694 1087.9276 187.7822 1111.2299C147.2214 1135.8724 107.5101 1162.0351 68.7246 1189.6679C55.1991 1199.1289 41.757 1208.7199 28.4003 1218.4409C22.7732 1222.5213 10.4082 1231.9322 4.876 1234.9525C4.876 1036.363 4.876 837.7734 4.876 639.1839Z"/><path fill="rgb(254,254,254)" stroke="none" fill-opacity="1" stroke-width="1" stroke-opacity="1" display="block" id="tSvg14c9f231f84" title="Path 6" d="M592.2503 811.2356C575.2303 817.6896 574.2423 824.7656 561.5313 836.8696C558.5133 839.7436 556.4873 840.6836 552.5883 840.4116C548.5113 836.3396 548.8373 832.3536 550.1813 827.3596C556.8573 802.9956 574.6983 787.7186 596.9513 776.9526C609.6413 770.8136 624.4243 745.6686 615.6303 732.2426C608.4503 721.2796 585.4103 753.3976 576.7723 743.4906C570.9503 716.0186 621.4093 699.4626 631.7963 675.1816C638.2133 660.1806 635.7613 620.0446 650.7283 618.1736C667.6343 624.4066 659.4883 662.1366 671.3333 680.3456C679.4543 694.8076 696.9943 701.1046 708.5953 712.7896C715.3633 719.6056 731.7123 735.0766 720.3163 744.5436C709.1733 746.1066 696.0873 724.0896 684.9033 731.4476C678.9733 741.9486 684.7723 758.4056 691.4993 767.2926C698.7563 776.8806 709.8093 780.8256 719.5253 787.3076C734.2353 797.1226 744.8773 811.6756 747.8133 829.3226C748.4023 832.8986 749.2633 837.6686 747.1343 840.7116C736.2103 844.0436 717.2643 808.8466 705.9043 813.4356C703.4443 820.3656 710.3173 829.6776 703.3193 835.1426C686.1783 837.5806 675.6273 803.1046 665.0563 811.1336C659.0773 827.5406 677.4803 867.4576 693.8763 871.8296C723.3083 879.6776 734.2343 878.7206 756.6133 902.3876C763.9123 910.9526 780.1853 935.6326 772.5113 946.3126C768.6703 946.9826 766.1123 946.4526 762.8263 943.9226C746.7183 931.4926 742.2383 920.4326 722.1033 912.8226C723.4773 920.4326 738.4303 952.3526 723.9513 952.7526C706.2433 953.2426 676.4073 906.0026 665.2813 906.6326C660.2933 912.5826 669.1263 931.2626 671.8933 937.7626C685.2803 969.2126 710.8823 983.9726 740.7283 997.0026C727.3643 1020.0426 719.8773 1037.5926 709.0833 1061.6126C702.2553 1052.4226 689.9613 1034.4426 680.8173 1029.4326C680.0226 1029.4326 679.2279 1029.4326 678.4333 1029.4326C673.2673 1039.1426 694.2733 1074.5926 701.4173 1083.1626C683.5123 1144.0326 672.2533 1195.7726 679.0113 1260.0926C680.4443 1274.7526 682.8353 1289.3126 686.1693 1303.6626C687.9413 1310.9726 695.7383 1335.9326 694.4493 1341.8426C686.3903 1343.6726 672.6993 1328.0526 665.2813 1334.7926C664.1143 1339.6126 665.0663 1367.6126 665.2013 1374.8926C666.1953 1438.1026 669.4973 1501.2526 675.0993 1564.2126C680.2133 1565.1526 696.3153 1571.1626 691.5303 1578.0726C675.1333 1601.7526 610.5863 1593.6026 598.6973 1568.8926C595.5603 1562.3726 603.9353 1548.8126 617.7523 1564.4426C623.3623 1538.6326 636.1003 1338.4526 630.5173 1326.7426C624.5793 1325.4326 538.6563 1374.2726 523.0953 1371.2726C520.3743 1370.7426 519.8413 1369.7226 518.4743 1367.6026C517.2893 1353.4726 539.4233 1333.7326 538.4773 1325.0326C529.4383 1322.0526 510.1783 1331.6526 501.7883 1335.8426C490.2013 1341.5726 479.4603 1348.8726 469.8693 1357.5326C463.9153 1362.9326 456.4003 1374.4326 447.6343 1371.6326C441.1663 1364.9026 446.8443 1356.3726 449.9073 1349.2226C466.9523 1309.4626 502.2243 1283.5826 537.0663 1260.1726C555.8223 1247.5626 586.9403 1195.0526 577.5283 1174.6326C563.3643 1168.6726 534.8093 1231.7826 515.9653 1230.4026C502.7823 1220.8826 524.1093 1182.5426 520.0733 1173.9226C510.7703 1171.8926 487.8103 1191.0426 480.4803 1196.9126C472.7203 1203.1226 462.7413 1216.5126 452.1533 1215.8626C440.0713 1208.5426 457.7693 1179.3826 463.3343 1171.0526C499.6363 1116.7526 580.5703 1115.7726 605.8363 1051.9026C608.3393 1045.7126 612.2723 1035.9726 611.7423 1029.4426C611.2559 1029.0192 610.7696 1028.5959 610.2833 1028.1726C597.7273 1031.8926 583.0953 1059.7726 572.4863 1068.9526C565.3873 1075.0826 552.3383 1086.4426 542.3683 1083.8826C532.5553 1074.0326 550.7023 1049.3426 548.5453 1041.4726C532.3193 1036.1926 509.8453 1068.9726 499.0353 1077.4326C496.9583 1079.0526 495.1773 1078.3326 493.0093 1077.8826C480.8503 1067.7826 503.4433 1034.4326 511.2013 1025.0426C528.8043 1003.7326 548.8423 1001.3026 572.8313 990.5726C600.8603 978.0326 626.5573 942.9926 631.2323 912.7426C631.6373 910.1226 629.8973 907.1426 627.6783 905.5226C612.3663 912.3526 589.2453 956.2526 568.6883 950.2926C566.6443 949.7026 565.5523 947.3326 565.0183 945.3926C562.7923 937.2926 572.8193 922.2426 568.5543 916.8226C555.7303 915.7226 537.2113 941.3726 528.1553 948.7526C526.5663 950.0526 524.7853 949.5626 522.9183 949.4426C521.1093 948.2726 520.0443 947.6426 518.3733 946.3126C518.5053 931.3226 528.3963 916.1426 537.3263 905.2066C551.7653 888.1526 569.6063 877.2166 592.0663 876.1136C614.8213 874.9966 633.8293 836.9186 633.0343 816.4616C632.9293 813.7536 630.8333 811.4336 628.6963 810.1516C617.9673 811.9176 585.3463 866.7186 592.2503 811.2356Z"/><path fill="rgb(254,254,254)" stroke="none" fill-opacity="1" stroke-width="1" stroke-opacity="1" display="block" id="tSvg67249eefbc" title="Path 7" d="M0 1523.71C36.0601 1552.22 74.7861 1579.12 111.066 1603.75C278.099 1717.16 464.17 1818.13 669.973 1828.64C676.941 1828.99 680.583 1835.64 677.972 1842.4C669.545 1850.38 649.753 1846.54 638.911 1845.63C601.971 1842.54 565.607 1835.23 529.542 1826.7C369.216 1788.77 224.154 1703.59 88.9592 1612C68.3094 1597.72 47.7754 1583.27 27.359 1568.66C19.2435 1562.82 8.0591 1554.07 0 1548.76C0 1540.41 0 1532.06 0 1523.71Z"/><path fill="rgb(254,254,254)" stroke="none" fill-opacity="1" stroke-width="1" stroke-opacity="1" display="block" id="tSvg9aa45b3e41" title="Path 8" d="M1461.89 1467.09C1687.4 1457.3 1848.87 1508.43 2048 1608.79C2048 1615.37 2048 1621.95 2048 1628.53C2002.2 1603.19 1965.43 1586.88 1917.83 1566.9C1758.53 1500.03 1626.19 1480.15 1454.61 1489.11C1456.73 1481.83 1459.43 1474.3 1461.89 1467.09Z"/><path fill="rgb(254,254,254)" stroke="none" fill-opacity="1" stroke-width="1" stroke-opacity="1" display="block" id="tSvg184c6a0606" title="Path 9" d="M0 1391.0002C128.7444 1442.5782 263.3456 1501.899 395.4795 1543.3131C440.1368 1557.2034 485.3637 1569.554 531.0623 1580.3537C553.324 1585.5417 575.9517 1589.6474 597.9999 1594.7126C597.6065 1601.6186 597.0194 1609.1383 596.8879 1615.9998C467.4187 1590.6961 348.5211 1554.6708 227.4529 1506.2279C181.0556 1487.6629 134.5987 1468.3281 88.2587 1449.5847C58.7987 1437.6692 29.9275 1424.8947 0 1413.8829C0 1406.2553 0 1398.6278 0 1391.0002Z"/><path fill="rgb(19,82,66)" stroke="none" fill-opacity="1" stroke-width="1" stroke-opacity="1" display="block" id="tSvgb0cc026b93" title="Path 10" d="M1011.05 1177.75C1021.86 1178.35 1018.11 1177.9 1022.55 1186.24C1022.33 1185.82 1044.11 1189.01 1046.42 1189.47C1067.16 1193.77 1086.72 1202.52 1103.74 1215.13C1140.68 1242.36 1153.07 1276.96 1159.58 1320C1166.16 1319.85 1171.79 1319.03 1174.66 1326.2C1172.86 1334.68 1166.08 1332.92 1159.29 1332.52C1155.31 1369.71 1149.34 1393.88 1123.23 1422.7C1095.92 1452.84 1065.31 1466.43 1025.25 1468.46C1024.76 1468.48 1024.27 1468.5 1023.78 1468.52C986.711 1469.44 950.79 1455.65 923.86 1430.16C896.313 1404.08 882.047 1369.83 880.85 1332.15C873.752 1332.8 868.099 1334.3 864.784 1326.61C867.086 1318.52 873.682 1319.98 880.528 1320.2C884.658 1246.86 936.756 1195.65 1008.48 1186.47C1008.48 1186.47 1008.48 1186.47 1008.48 1186.47C1009.3367 1183.5633 1010.1933 1180.6567 1011.05 1177.75Z"/><path fill="rgb(254,254,254)" stroke="none" fill-opacity="1" stroke-width="1" stroke-opacity="1" display="block" id="tSvgab431bd354" title="Path 11" d="M1019.2287 877C1069.6833 876.9886 1119.4695 889.0504 1164.7684 912.2601C1245.9821 954.1539 1306.9823 1030.2483 1334.7749 1119.7233C1369.6369 1231.9184 1346.3817 1318.0853 1297.3977 1420.042C1244.7872 1529.5226 1165.0358 1626.7397 1075.5327 1705.2518C1062.731 1716.4853 1033.9857 1741.7977 1019.1535 1746.9998C1001.3565 1745.2978 942.6125 1688.1877 926.8929 1672.7559C826.4657 1574.151 734.8519 1448.3395 699.4768 1307.0701C693.7395 1282.9273 688.0497 1258.0338 687.5383 1233.0618C684.124 1066.3403 800.8415 915.0908 957.5709 883.3961C978.7747 879.1079 997.7316 877.7995 1019.2287 877Z"/><path fill="rgb(254,254,254)" stroke="none" fill-opacity="1" stroke-width="1" stroke-opacity="1" display="block" id="tSvg4ceb6ba011" title="Path 12" d="M1018.12 1234.6C1069.38 1233.82 1111.61 1274.66 1112.54 1325.92C1113.47 1377.17 1072.74 1419.52 1021.49 1420.59C970.029 1421.67 927.481 1380.74 926.549 1329.28C925.617 1277.82 966.656 1235.39 1018.12 1234.6Z"/><path fill="rgb(19,82,66)" stroke="none" fill-opacity="1" stroke-width="1" stroke-opacity="1" display="block" id="tSvg13d530e057d" title="Path 13" d="M1017.7 1262.54C1019.59 1263.8 1023.9 1271.43 1026.9 1274.73C1034.2 1282.79 1037.87 1285.44 1046.6 1291.73C1040.74 1292.44 1035.34 1292.77 1029.46 1293.13C1040.24 1304.21 1045.51 1306.29 1059.17 1313.41C1048.78 1314.98 1043.84 1315 1033.26 1315.01C1046.95 1325.9 1056.26 1331.5 1072.52 1337.92C1058.37 1341.34 1052.97 1341.87 1038.17 1342.03C1050.42 1354.18 1061.93 1359.83 1078.59 1363.65C1062.79 1374.04 1042.69 1377.8 1025.28 1369.06C1024.96 1376.37 1025.95 1383.91 1024.76 1391.08C1024.2 1394.42 1022.88 1394.54 1020.42 1395.93C1018.96 1395.42 1015.2 1394.48 1014.69 1393.33C1011.97 1387.24 1013.64 1375.3 1013.75 1368.59C998.433 1374.93 975.183 1375.84 961.173 1365.85C961.1213 1365.4 961.0697 1364.95 961.018 1364.5C978.442 1355.85 982.671 1353.45 998.003 1341.29C984.789 1342.44 977.01 1341.2 964.598 1337.26C980.569 1332.48 990.115 1324.53 1003.46 1314.9C993.303 1315.52 986.722 1315.21 976.799 1313.32C988.822 1308.11 1000.05 1301.22 1010.14 1292.86C1003.69 1293.04 997.052 1293.02 990.588 1293.07C1007.39 1281.49 1007.94 1280.29 1017.7 1262.54Z"/><path fill="rgb(254,254,254)" stroke="none" fill-opacity="1" stroke-width="1" stroke-opacity="1" display="block" id="tSvg738e02ecac" title="Path 14" d="M1125.2 1332.22C1132.39 1332.16 1139.71 1332.26 1146.92 1332.3C1142.06 1395.66 1104.75 1439.67 1042.95 1454.73C1036.33 1455.63 1030.7 1455.99 1024.05 1456.39C1024.0267 1449.01 1024.0033 1441.63 1023.98 1434.25C1074.54 1429.25 1112.87 1399.28 1122.58 1348.07C1123.58 1342.81 1124.38 1337.51 1125.2 1332.22Z"/><path fill="rgb(254,254,254)" stroke="none" fill-opacity="1" stroke-width="1" stroke-opacity="1" display="block" id="tSvg1832245a76d" title="Path 15" d="M1021.36 1199.66C1048.91 1199.8 1075.62 1209.15 1097.26 1226.2C1128.82 1250.98 1142.15 1281.2 1146.74 1320.04C1139.08 1320.07 1131.42 1320.1 1123.76 1320.13C1117.72 1261.15 1079.37 1226.35 1021.3 1221.06C1021.32 1213.9267 1021.34 1206.7933 1021.36 1199.66Z"/><path fill="rgb(254,254,254)" stroke="none" fill-opacity="1" stroke-width="1" stroke-opacity="1" display="block" id="tSvgb72219e0dc" title="Path 16" d="M893.863 1332.22C900.8177 1332.1067 907.7723 1331.9933 914.727 1331.88C916.253 1388.55 958.469 1425.81 1012.21 1434.14C1012.28 1441.02 1012.61 1449.01 1011.71 1455.72C982.431 1453.01 953.625 1440.7 932.387 1420.21C908.276 1397.23 894.398 1365.53 893.863 1332.22Z"/><path fill="rgb(254,254,254)" stroke="none" fill-opacity="1" stroke-width="1" stroke-opacity="1" display="block" id="tSvg1198788d0c0" title="Path 17" d="M1001.25 1200.36C1004.94 1199.75 1006.39 1199.37 1009.19 1201.42C1011.34 1206.85 1010.25 1215.05 1010.06 1221.35C994.825 1222.94 983.467 1225.62 969.832 1233.12C945.353 1246.72 927.194 1269.4 919.263 1296.25C917.142 1303.69 916.828 1311.12 914.451 1319.15C911.031 1320.62 906.789 1320.18 902.959 1320.14C899.733 1320.21 898.062 1320.07 894.928 1319.77C894.6373 1319.38 894.3467 1318.99 894.056 1318.6C892.696 1297.53 905 1266.41 918.204 1250.21C940.819 1222.47 965.766 1205.14 1001.25 1200.36Z"/><path fill="rgb(254,254,254)" stroke="none" fill-opacity="1" stroke-width="1" stroke-opacity="1" display="block" id="tSvg33c84c05fb" title="Path 18" d="M976.229 1527.7C979.28 1531.2 985.317 1550.6 986.361 1555.74C984.194 1557.39 982.656 1556.78 979.25 1556.87C974.7463 1556.87 970.2427 1556.87 965.739 1556.87C968.53 1546.91 972.036 1537.16 976.229 1527.7Z"/><path fill="rgb(19,82,66)" stroke="none" fill-opacity="1" stroke-width="1" stroke-opacity="1" display="block" id="tSvg7dc87ef136" title="Path 19" d="M1237.88 1146.39C1255.8 1141.98 1273.89 1152.97 1278.23 1170.91C1282.57 1188.85 1271.5 1206.89 1253.54 1211.16C1235.7 1215.39 1217.78 1204.4 1213.47 1186.57C1209.15 1168.74 1220.07 1150.78 1237.88 1146.39Z"/><path fill="rgb(254,254,254)" stroke="none" fill-opacity="1" stroke-width="1" stroke-opacity="1" display="block" id="tSvg6328e6de93" title="Path 20" d="M1242.12 1158.55C1252.96 1156.4 1263.51 1163.36 1265.8 1174.16C1268.1 1184.97 1261.29 1195.61 1250.51 1198.05C1243.41 1199.66 1236 1197.32 1231.1 1191.93C1226.21 1186.54 1224.59 1178.94 1226.87 1172.03C1229.16 1165.11 1234.98 1159.97 1242.12 1158.55Z"/><path fill="rgb(19,82,66)" stroke="none" fill-opacity="1" stroke-width="1" stroke-opacity="1" display="block" id="tSvg4b3313a90a" title="Path 21" d="M791.12 1149.21C808.968 1147.83 813.772 1154.46 817.534 1170.54C815.682 1176.82 814.631 1178.78 811.7 1184.41C818.345 1187.72 825.956 1192.36 832.482 1196.12C827.769 1198.85 823.322 1200.95 818.435 1203.31C811.034 1198.59 806.881 1196.1 798.902 1192.66C797.416 1193.02 795.933 1193.39 794.455 1193.78C790.599 1194.81 790.238 1194.79 788.582 1197.64C788.9893 1198.85 789.3967 1200.06 789.804 1201.27C791.7523 1205.8733 793.7007 1210.4767 795.649 1215.08C791.173 1217.82 787.636 1219.17 782.843 1221.2C773.477 1203.97 765.46 1182.62 755.871 1166.35C763.545 1161.58 782.348 1153.11 791.12 1149.21Z"/><path fill="rgb(254,254,254)" stroke="none" fill-opacity="1" stroke-width="1" stroke-opacity="1" display="block" id="tSvg122a5fa6916" title="Path 22" d="M790.606 1162.01C795.45 1161.85 798.428 1161.94 802.063 1165.5C805.038 1175.57 793.645 1181.48 786.388 1185.41C784.32 1186.19 785.419 1186.12 783.085 1185.37C779.273 1180.45 777.163 1175.12 774.52 1169.46C779.882 1166.9767 785.244 1164.4933 790.606 1162.01Z"/><path fill="rgb(19,82,66)" stroke="none" fill-opacity="1" stroke-width="1" stroke-opacity="1" display="block" id="tSvg20cca220e7" title="Path 23" d="M1146.25 1114.54C1171.47 1117.11 1209.43 1132.01 1180.1 1160.35C1171.76 1163.13 1170.3 1162.91 1161.78 1161.12C1157.71 1160.26 1153.64 1159.4 1149.57 1158.54C1148.02 1164.7 1146.65 1171.3 1145.25 1177.53C1140.72 1176.7 1136.23 1175.66 1131.74 1174.66C1136.86 1154.69 1141.7 1134.65 1146.25 1114.54Z"/><path fill="rgb(254,254,254)" stroke="none" fill-opacity="1" stroke-width="1" stroke-opacity="1" display="block" id="tSvgdbae8b1f88" title="Path 24" d="M1156.66 1129.47C1168.38 1131.17 1184.63 1135.49 1172.57 1150.3C1165.87 1151.64 1159.29 1149.62 1152.66 1148.12C1154.13 1142.9 1155.53 1135 1156.66 1129.47Z"/><path fill="rgb(19,82,66)" stroke="none" fill-opacity="1" stroke-width="1" stroke-opacity="1" display="block" id="tSvg154cc4bb905" title="Path 25" d="M874.08 1119.16C874.814 1119.28 875.548 1119.39 876.282 1119.51C888.39 1133.18 906.772 1156.1 917.777 1169.27C913.458 1171.05 908.393 1172.75 903.949 1174.36C901.3433 1170.4467 898.7377 1166.5333 896.132 1162.62C892.329 1163.5933 888.526 1164.5667 884.723 1165.54C878.773 1166.8433 872.823 1168.1467 866.873 1169.45C866.778 1173.96 866.683 1178.47 866.588 1182.98C862.014 1185.09 856.197 1187.2 851.429 1189.08C854.902 1167.64 857.645 1144.39 860.644 1122.7C865.1227 1121.52 869.6013 1120.34 874.08 1119.16Z"/><path fill="rgb(254,254,254)" stroke="none" fill-opacity="1" stroke-width="1" stroke-opacity="1" display="block" id="tSvg7b92734e03" title="Path 26" d="M871.615 1132.7C875.414 1136.43 886.607 1147.88 885.228 1153.15C883.7767 1153.83 882.3253 1154.51 880.874 1155.19C876.8467 1156.2067 872.8193 1157.2233 868.792 1158.24C869.274 1149.13 870.21 1141.68 871.615 1132.7Z"/><path fill="rgb(19,82,66)" stroke="none" fill-opacity="1" stroke-width="1" stroke-opacity="1" display="block" id="tSvg15e034e523c" title="Path 27" d="M1073.7 1103.15C1076.06 1102.88 1078.44 1102.74 1080.82 1102.74C1092.18 1102.68 1100.78 1106.6 1108.83 1114.4C1106.26 1117.51 1103.27 1120.6 1100.51 1123.57C1094.25 1117.23 1085.03 1110.54 1076.58 1116.88C1072.88 1129.08 1116.25 1134.71 1104.34 1154.81C1099.76 1162.52 1096.97 1163.67 1088.46 1166.21C1072.88 1166.38 1066.28 1163.83 1053.71 1155.2C1056.3333 1151.98 1058.9567 1148.76 1061.58 1145.54C1066.77 1148.83 1089.7 1163.22 1091.48 1149.41C1086.29 1139.24 1034.7 1126.21 1073.7 1103.15Z"/><path fill="rgb(19,82,66)" stroke="none" fill-opacity="1" stroke-width="1" stroke-opacity="1" display="block" id="tSvg5c4a57110d" title="Path 28" d="M727.182 1179.12C730.502 1182.2 731.964 1184.93 734.394 1188.71C728.976 1193.1 721.13 1197.7 715.062 1201.5C723.563 1216.64 734.837 1229.6 743.43 1244.72C739.7107 1247.2933 735.9913 1249.8667 732.272 1252.44C728.685 1248.34 724.127 1240.93 721.001 1236.17C715.303 1227.45 709.709 1218.55 703.3 1210.35C697.693 1213.67 690.847 1218.67 685.355 1222.46C682.228 1218.11 681.071 1215.99 678.617 1211.2C695.173 1199.69 710.005 1189.71 727.182 1179.12Z"/><path fill="rgb(19,82,66)" stroke="none" fill-opacity="1" stroke-width="1" stroke-opacity="1" display="block" id="tSvg8ca3914653" title="Path 29" d="M1315.45 1178.23C1320.41 1179.7 1350.45 1201.6 1357.99 1206.54C1356.2133 1210.22 1354.4367 1213.9 1352.66 1217.58C1346.52 1213.23 1341.53 1209.98 1335.1 1206.06C1330.67 1213.24 1326.18 1220.39 1321.63 1227.5C1318.32 1233.17 1313.66 1240.03 1310.06 1245.69C1306.1333 1243.26 1302.2067 1240.83 1298.28 1238.4C1305.21 1226.44 1316.28 1210.62 1324.08 1198.74C1319.4133 1195.5133 1314.7467 1192.2867 1310.08 1189.06C1311.82 1185.42 1313.61 1181.82 1315.45 1178.23Z"/><path fill="rgb(19,82,66)" stroke="none" fill-opacity="1" stroke-width="1" stroke-opacity="1" display="block" id="tSvg16af9eabd76" title="Path 30" d="M987.82 1101.09C992.2333 1101.0867 996.6467 1101.0833 1001.06 1101.08C1001.28 1116.68 1001.76 1132.27 1002.5 1147.85C1012.89 1147.16 1023.21 1147.03 1033.61 1146.83C1034.13 1150.6767 1034.65 1154.5233 1035.17 1158.37C1026.57 1159.58 999.634 1159.88 989.38 1160.37C988.605 1140.62 988.085 1120.85 987.82 1101.09Z"/><path fill="rgb(19,82,66)" stroke="none" fill-opacity="1" stroke-width="1" stroke-opacity="1" display="block" id="tSvg1774d233504" title="Path 31" d="M948.721 1104.39C951.862 1109.58 954.561 1151.7 955.433 1161.39C954.979 1162.15 954.524 1162.9 954.07 1163.65C950.681 1165.62 947.237 1165.18 943.271 1165.19C940.867 1155.16 936.722 1117.91 935.635 1106.75C940.205 1105.56 944.076 1105.07 948.721 1104.39Z"/><path fill="rgb(254,254,254)" stroke="none" fill-opacity="1" stroke-width="1" stroke-opacity="1" display="block" id="tSvg192b78d23af" title="Path 32" d="M570.763 1592.52C580.064 1594.13 590.411 1596.66 599.681 1597.08C602.965 1604.79 605.555 1611.53 608.392 1619.43C596.797 1617.67 583.641 1614.74 571.526 1612.77C571.119 1606.27 571.006 1599.08 570.763 1592.52Z"/></svg>